<?xml version="1.0" standalone="no"?>
<!DOCTYPE svg PUBLIC "-//W3C//DTD SVG 20010904//EN"
 "http://www.w3.org/TR/2001/REC-SVG-20010904/DTD/svg10.dtd">
<svg version="1.0" xmlns="http://www.w3.org/2000/svg"
 width="545.000000pt" height="458.000000pt" viewBox="0 0 545.000000 458.000000"
 preserveAspectRatio="xMidYMid meet">
<metadata>
Created by potrace 1.16, written by Peter Selinger 2001-2019
</metadata>
<g transform="translate(0.000000,458.000000) scale(0.100000,-0.100000)"
fill="#000000" stroke="none">
<path d="M2660 3619 c-30 -4 -91 -13 -135 -20 -173 -25 -412 -123 -576 -234
-153 -104 -323 -270 -385 -376 -6 -10 -18 -27 -26 -36 -9 -10 -37 -61 -64
-113 -27 -52 -53 -98 -58 -101 -12 -9 62 -17 227 -25 75 -3 140 -10 143 -15 3
-5 -7 -9 -23 -9 -15 0 -95 -13 -178 -29 -82 -16 -175 -32 -205 -36 -100 -12
-90 28 -90 -356 0 -316 -1 -339 -17 -339 -17 -1 -17 -1 0 -11 13 -8 17 -24 17
-74 0 -36 3 -65 8 -65 4 0 6 184 4 410 -2 388 -1 410 15 410 10 0 101 -7 203
-14 692 -55 1890 -55 2605 0 105 8 198 14 208 14 16 0 17 -24 18 -362 1 -200
4 -353 6 -341 2 12 12 24 21 26 15 4 15 5 0 6 -17 1 -18 24 -18 340 l0 339
-72 12 c-40 6 -142 25 -225 41 -84 16 -164 29 -178 29 -14 0 -25 4 -25 9 0 5
60 12 133 15 72 4 153 9 180 12 l47 6 -14 26 c-7 15 -21 43 -30 62 -95 207
-323 455 -524 570 -15 9 -46 28 -69 43 -24 15 -45 27 -48 27 -3 0 -34 13 -68
29 -79 37 -259 96 -317 105 -251 37 -372 43 -490 25z m4 -283 c20 -42 23 -154
3 -138 -8 7 -18 6 -31 -4 -44 -31 -105 1 -93 48 6 23 53 48 90 48 11 0 17 8
17 24 0 30 -24 39 -77 31 -36 -6 -37 -5 -19 9 11 9 36 16 57 16 32 0 39 -4 53
-34z m-389 14 c4 -6 -5 -10 -20 -10 -39 0 -83 -27 -101 -62 -21 -41 -6 -96 37
-132 35 -30 67 -33 109 -11 34 18 36 25 14 66 -11 22 -20 29 -32 24 -62 -26
-74 -8 -13 20 41 18 61 14 61 -11 0 -8 7 -29 16 -45 14 -29 14 -32 -3 -51 -22
-25 -73 -48 -107 -48 -50 0 -116 83 -116 147 0 42 29 84 73 104 47 21 73 24
82 9z m808 1 c40 -15 57 -40 57 -81 0 -56 -39 -100 -89 -100 -60 0 -81 22 -81
83 0 61 5 70 45 91 35 19 37 19 68 7z m312 -93 c43 -19 41 -67 -6 -170 -12
-28 -29 -38 -29 -18 0 6 -14 10 -32 10 -60 0 -90 57 -48 95 14 13 28 16 52 11
65 -13 73 -12 76 11 4 25 -31 53 -65 53 -13 0 -23 5 -23 10 0 14 43 13 75 -2z
m-580 -220 l21 -43 68 -5 68 -5 -57 -28 -57 -28 21 -35 c35 -59 27 -67 -29
-34 -28 17 -55 30 -60 30 -5 0 -32 -13 -60 -30 -50 -30 -64 -24 -37 15 32 47
29 54 -29 83 l-56 27 68 5 69 5 20 42 c11 23 22 42 25 43 3 0 14 -19 25 -42z"/>
<path d="M3023 3332 c-16 -10 -33 -57 -33 -92 0 -50 75 -70 104 -28 21 29 20
92 0 112 -16 17 -51 21 -71 8z"/>
<path d="M1381 1774 c8 -2 21 -21 28 -42 20 -56 100 -211 127 -247 13 -18 24
-35 24 -39 0 -28 201 -240 295 -311 134 -102 314 -202 420 -234 22 -7 49 -16
60 -20 74 -29 209 -54 381 -71 209 -19 534 34 714 116 127 59 240 120 265 144
12 11 25 20 29 20 11 0 86 63 173 145 79 75 186 211 246 312 31 54 107 217
107 231 0 3 -21 2 -47 -2 -27 -3 -158 -13 -293 -23 -200 -13 -398 -17 -1080
-17 -836 0 -844 1 -1400 39 -36 2 -58 2 -49 -1z m1575 -314 l69 -6 -48 -23
c-27 -12 -50 -28 -53 -36 -3 -7 4 -30 15 -51 11 -21 19 -40 17 -42 -3 -2 -24
8 -49 22 -54 32 -71 32 -126 1 -23 -14 -45 -25 -47 -25 -3 0 5 18 16 40 11 21
20 44 20 49 0 6 -26 23 -57 38 l-57 28 72 3 73 3 21 45 22 45 22 -43 22 -43
68 -5z"/>
</g>
</svg>
